<?xml version="1.0" encoding="utf-8"?>
<!-- Generator: Adobe Illustrator 16.0.0, SVG Export Plug-In . SVG Version: 6.00 Build 0)  -->
<!DOCTYPE svg PUBLIC "-//W3C//DTD SVG 1.1//EN" "http://www.w3.org/Graphics/SVG/1.1/DTD/svg11.dtd">
<svg version="1.1"
	 id="Слой_1"
	 xmlns="http://www.w3.org/2000/svg"  x="0px" y="0px" width="1500px" height="1500px"
	 viewBox="0 0 1500 1500" enable-background="new 0 0 1500 1500" xml:space="preserve">
<g transform="translate(0,-952.36218)">
	<path style="fill:#FFFFFF;" d="M748.875,1090.39c-4.646,0.155-8.904,1.056-12.375,2.25l-480,192c-13.314,5.387-22.649,19.389-22.5,33.75v648
		c0,14.238,9.302,28.035,22.5,33.375l480,192.001c8.553,3.459,18.447,3.459,27,0l480-192c13.198-5.341,22.5-19.138,22.5-33.375v-648
		c0.148-14.361-9.186-28.363-22.5-33.75l-480-192C758.551,1090.843,753.521,1090.239,748.875,1090.39z M749.999,1165.015
		l382.501,153L990,1375.39l-382.875-153.375L749.999,1165.015L749.999,1165.015z M509.999,1261.015l382.5,153l-142.5,57.375
		l-382.5-153.375L509.999,1261.015z M305.999,1371.64l408,163.124v570.377l-408-163.5V1371.64z M1194,1371.64v570l-168,67.125
		V1870.39c0.413-19.88-15.367-36.331-35.247-36.743c-0.376-0.01-0.753-0.011-1.129-0.007c-19.883,0.205-35.835,16.489-35.63,36.372
		c0.001,0.126,0.003,0.252,0.006,0.378v167.25l-168,67.501v-570.377l168-67.123v138.75c-0.281,19.882,15.607,36.228,35.491,36.509
		c19.882,0.28,36.228-15.608,36.509-35.491c0.005-0.339,0.005-0.679,0-1.018v-167.625L1194,1371.64L1194,1371.64z"/>
</g>
</svg>
