<?xml version="1.0" encoding="utf-8"?>
<!-- Generator: Adobe Illustrator 16.0.0, SVG Export Plug-In . SVG Version: 6.00 Build 0)  -->
<!DOCTYPE svg PUBLIC "-//W3C//DTD SVG 1.1//EN" "http://www.w3.org/Graphics/SVG/1.1/DTD/svg11.dtd">
<svg version="1.1" id="Layer_1" xmlns="http://www.w3.org/2000/svg"  x="0px" y="0px"
	 width="500px" height="500px" viewBox="0 0 500 500" enable-background="new 0 0 500 500" xml:space="preserve">
<g>
	<path style="fill:#FFFFFF;" d="M410,238c-6.617,0-12,5.383-12,12c0,25.505-6.817,51.081-19.716,73.964l-0.016,0.024l-0.014,0.021
		c-13.239,22.756-31.49,41.008-54.245,54.245l-0.021,0.015l-0.024,0.015C301.081,391.184,275.505,398,250,398
		s-51.081-6.816-73.964-19.716l-0.024-0.015l-0.024-0.015c-22.755-13.237-41.006-31.489-54.246-54.245l-0.014-0.021l-0.013-0.024
		C108.817,301.081,102,275.505,102,250s6.817-51.081,19.716-73.964l0.013-0.024l0.014-0.023
		c13.239-22.755,31.49-41.006,54.246-54.246c17.161-9.977,36.515-16.34,57.525-18.913l4.486-0.55v4.52V250c0,6.617,5.383,12,12,12
		h100c6.617,0,12-5.383,12-12s-5.383-12-12-12h-84h-4v-4V90c0-6.617-5.383-12-12-12c-30.34,0-60.074,7.973-85.988,23.057
		c-26.032,15.153-47.802,36.923-62.955,62.955C85.973,189.926,78,219.66,78,250s7.973,60.074,23.057,85.986
		c15.153,26.033,36.923,47.803,62.955,62.957C189.926,414.027,219.66,422,250,422s60.074-7.973,85.987-23.057
		c26.032-15.153,47.803-36.924,62.956-62.957C414.027,310.074,422,280.34,422,250C422,243.383,416.617,238,410,238z"/>
	<path style="fill:#FFFFFF;" d="M325.984,118.527l0.037,0.021l0.035,0.022c1.188,0.712,2.402,1.03,3.941,1.03c2.863,0,5.573-1.547,6.903-3.942
		c1.095-1.917,1.368-4.077,0.813-6.287c-0.506-2.027-1.718-3.563-3.703-4.698l-0.037-0.021l-0.035-0.022
		c-1.188-0.712-2.402-1.03-3.941-1.03c-2.863,0-5.573,1.547-6.903,3.942c-1.084,1.898-1.361,4.033-0.832,6.221
		C322.843,115.722,324.264,117.543,325.984,118.527z"/>
	<path style="fill:#FFFFFF;" d="M388.4,178c1.539,0,2.755-0.317,3.939-1.03l0.037-0.021l0.037-0.021c1.742-0.996,3.062-2.766,3.619-4.856
		c0.56-2.1,0.302-4.317-0.708-6.085c-1.354-2.437-4.064-3.984-6.929-3.984c-1.537,0-2.755,0.317-3.939,1.03l-0.037,0.021
		l-0.037,0.021c-1.984,1.135-3.198,2.671-3.704,4.697c-0.541,2.165-0.29,4.28,0.728,6.127C383.121,176.394,385.854,178,388.4,178z"
		/>
</g>
</svg>
