<?xml version="1.0" encoding="utf-8"?>
<!-- Generator: Adobe Illustrator 16.0.0, SVG Export Plug-In . SVG Version: 6.00 Build 0)  -->
<!DOCTYPE svg PUBLIC "-//W3C//DTD SVG 1.1//EN" "http://www.w3.org/Graphics/SVG/1.1/DTD/svg11.dtd">
<svg version="1.1" id="Layer_1" xmlns="http://www.w3.org/2000/svg"  x="0px" y="0px"
	 width="500px" height="500px" viewBox="0 0 500 500" enable-background="new 0 0 500 500" xml:space="preserve">
<g>
	<path style="fill:#FFFFFF;" d="M323.307,201.614c1.982,1.322,3.635,3.635,3.306,5.949c-0.001,33.056-0.003,66.112,0.659,99.169
		c0,1.981,0.331,3.635-0.662,5.289c-0.991,2.312-3.635,4.296-6.28,4.298c-2.974,0.329-5.619-1.653-6.941-4.297
		c-0.661-1.322-0.331-2.975-0.661-4.627c-0.001-33.055,0-66.112-0.661-99.168c-0.33-2.315,0.661-4.631,2.313-6.283
		C317.024,199.96,320.66,199.63,323.307,201.614z"/>
	<path style="fill:#FFFFFF;" d="M280.519,201.779c1.985,1.321,3.638,3.636,3.637,6.28c0.331,24.13-0.001,48.262,0.33,72.392
		c0.001,3.307-2.315,6.281-5.622,6.942c-2.976,0.991-6.281-0.331-7.932-3.304c-0.662-1.323-0.993-2.976-1.323-4.628
		c0-23.14-0.331-46.609-0.331-69.749c0-1.982,0-4.626,1.321-5.948C272.915,200.787,277.544,200.125,280.519,201.779z"/>
	<path style="fill:#FFFFFF;" d="M240.523,201.448c2.313,0.992,3.636,3.637,3.636,6.28c-0.001,23.139,0.33,45.948,0.331,69.087
		c-0.002,1.321-0.002,3.306-0.002,4.629c-0.661,3.306-3.967,5.949-7.271,5.949c-3.636-0.331-6.942-3.637-6.942-6.941
		c-0.33-24.132,0-48.262-0.332-72.39c-0.329-2.316,1.324-4.63,3.306-5.951C235.234,200.125,238.208,200.457,240.523,201.448z"/>
	<path style="fill:#FFFFFF;" d="M197.55,201.448c1.984,1.321,3.636,3.636,3.636,6.28c0,33.057,0.329,65.784,0.329,98.837c0,1.983,0.331,3.637-0.662,5.29
		c-1.322,2.643-3.965,4.626-6.609,4.626c-2.976,0.33-5.951-1.983-6.613-4.628c-0.66-1.982-0.661-3.966-0.661-5.949
		c-0.332-32.725-0.331-65.121-0.331-98.175c0.001-2.646,0.992-4.959,2.976-6.282C191.93,199.794,194.905,200.125,197.55,201.448z"/>
	<path style="fill:#FFFFFF;" d="M280.189,301.938c3.636,1.652,4.959,6.94,2.646,9.916c-1.984,3.304-6.609,4.628-9.588,2.315
		c-3.303-1.985-4.625-6.612-2.644-9.917C272.255,301.276,276.883,299.954,280.189,301.938z"/>
	<path style="fill:#FFFFFF;" d="M238.538,301.936c2.313,0.993,3.967,3.968,3.969,6.613c-0.002,2.646-1.653,5.619-4.298,6.942
		c-3.305,1.321-6.943,0.329-8.595-2.646c-1.982-2.644-1.652-6.279,0.33-8.924C232.259,300.945,235.564,300.285,238.538,301.936z"/>
</g>
<text transform="matrix(1 0 0 1 -2899 1910.999)" font-family="'HelveticaLTStd-Bold'" font-size="20">Created by misirlou</text>
<text transform="matrix(1 0 0 1 -2899 1930.999)" font-family="'HelveticaLTStd-Bold'" font-size="20">from the Noun Project</text>
<g>
	<path style="fill:#FFFFFF;" d="M120.393,352.719c-5.852-5.851-9.048-13.629-9.001-21.903l0.81-144.607c0.097-16.944,13.958-30.651,30.901-30.559
		l227.104,1.269c8.025,0.044,15.849,3.291,21.464,8.906c5.813,5.813,8.832,13.658,8.324,21.586l-0.811,143.925
		c0.405,8.448-2.471,16.366-8.127,22.338c-5.647,5.964-13.671,9.359-22.01,9.315l-227.097-1.271
		C133.807,361.673,126.15,358.477,120.393,352.719z M376.322,181.17c-1.606-1.607-3.88-2.536-6.237-2.55l-227.103-1.269
		c-4.976-0.026-9.047,4-9.076,8.976l-0.81,144.608c-0.015,2.431,0.924,4.716,2.644,6.436c1.69,1.69,3.938,2.628,6.328,2.643
		l227.097,1.266c2.396,0.012,4.574-0.888,6.133-2.534c1.109-1.172,2.393-3.251,2.198-6.503l-0.021-0.711l0.819-145.013l0.033-0.407
		C378.52,183.75,377.153,182.001,376.322,181.17z"/>
</g>
</svg>
