<?xml version="1.0" encoding="utf-8"?>
<!-- Generator: Adobe Illustrator 16.0.0, SVG Export Plug-In . SVG Version: 6.00 Build 0)  -->
<!DOCTYPE svg PUBLIC "-//W3C//DTD SVG 1.1//EN" "http://www.w3.org/Graphics/SVG/1.1/DTD/svg11.dtd">
<svg version="1.1" id="Layer_1" xmlns="http://www.w3.org/2000/svg"  x="0px" y="0px"
	 width="500px" height="500px" viewBox="0 0 500 500" enable-background="new 0 0 500 500" xml:space="preserve">
<g>
	<path style="fill:#FFFFFF;" d="M55,204.75c0,4.617,4.883,9.5,9.5,9.5h36.25h3v3v25v3h-3H84.5c-5.868,0-9.5,4.931-9.5,9.5c0,4.568,3.632,9.5,9.5,9.5h16.25
		h3v3v31.25c0,5.868,4.932,9.5,9.5,9.5h22.5h3v3c0,27.057,21.194,48.25,48.25,48.25c27.057,0,48.25-21.193,48.25-48.25v-3h3h97.5h3
		v3c0,27.057,21.193,48.25,48.25,48.25s48.25-21.193,48.25-48.25v-1.252v-1.854l1.658-0.828c6.688-3.344,10.842-9.979,10.842-17.316
		V273.5c0-1.662-0.302-3.779-0.596-5.827c-0.312-2.185-0.635-4.442-0.653-6.481c-2.965-23.97-14.646-46.098-32.899-62.324
		c-18.287-16.254-41.965-25.53-66.672-26.118L344,172.68v-2.93v-57.5c0-5.868-4.932-9.5-9.5-9.5H113.25c-4.568,0-9.5,3.632-9.5,9.5
		v31.25v3h-3H84.5c-5.868,0-9.5,4.931-9.5,9.5s3.632,9.5,9.5,9.5h16.25h3v3v25v3h-3H64.5C58.906,196.5,55,199.893,55,204.75z
		 M356.5,308h3H412h3v3c0,16.675-12.575,29.25-29.25,29.25c-16.128,0-29.25-13.121-29.25-29.25V308z M344,190.405l3.094,0.097
		c41.313,1.291,75.119,31.83,80.381,72.615l0.025,0.189v0.193v10V286v3h-3H347h-3v-3v-92.5V190.405z M156.5,308h3H212h3v3
		c0,16.675-12.575,29.25-29.25,29.25c-16.129,0-29.25-13.121-29.25-29.25V308z M121.5,121.75h3H322h3v3v162.5v3h-3H124.5h-3v-3
		V268.5v-3h3h111.25c4.617,0,9.5-4.883,9.5-9.5s-4.883-9.5-9.5-9.5H124.5h-3v-3v-25v-3h3h73.75c4.617,0,9.5-4.883,9.5-9.5
		s-4.883-9.5-9.5-9.5H124.5h-3v-3v-25v-3h3h111.25c4.617,0,9.5-4.883,9.5-9.5s-4.883-9.5-9.5-9.5H124.5h-3v-3v-18.75V121.75z"/>
</g>
</svg>
