<?xml version="1.0" encoding="utf-8"?>
<!-- Generator: Adobe Illustrator 16.0.0, SVG Export Plug-In . SVG Version: 6.00 Build 0)  -->
<!DOCTYPE svg PUBLIC "-//W3C//DTD SVG 1.1//EN" "http://www.w3.org/Graphics/SVG/1.1/DTD/svg11.dtd">
<svg version="1.1"
	 id="Слой_1"
	 xmlns="http://www.w3.org/2000/svg"  x="0px" y="0px" width="1500px" height="1500px"
	 viewBox="0 0 1500 1500" enable-background="new 0 0 1500 1500" xml:space="preserve">
<g transform="translate(0,-952.36218)">
	<path style="fill:#FFFFFF;" id="white" d="M728.25,1099.473l-480,360.005c-8.867,6.724-14.308,17.748-14.25,28.875v648.009c0.002,18.85,17.15,35.999,36,36.001h324
		c18.85-0.002,35.998-17.151,36-36.001v-179.999c0-67.104,52.896-120.002,120-120.002s120,52.897,120,120.002v179.999
		c0.003,18.85,17.15,35.999,36,36.001h324c18.85-0.002,35.998-17.151,36-36.001v-648.009c0-11.129-5.383-22.152-14.25-28.877
		l-480-360.004C756.031,1089.489,742.925,1090.509,728.25,1099.473L728.25,1099.473z M750,1173.349l444,333.004v594.009H942
		v-143.999c0-105.747-86.255-192.002-192-192.002s-192,86.256-192,192.002v143.999H306v-594.009L750,1173.349z"/>
</g>
</svg>
