<?xml version="1.0" encoding="utf-8"?>
<!-- Generator: Adobe Illustrator 16.0.0, SVG Export Plug-In . SVG Version: 6.00 Build 0)  -->
<!DOCTYPE svg PUBLIC "-//W3C//DTD SVG 1.1//EN" "http://www.w3.org/Graphics/SVG/1.1/DTD/svg11.dtd">
<svg version="1.1"
	 id="Layer_1"
	 xmlns="http://www.w3.org/2000/svg"  x="0px" y="0px" width="500px" height="500px"
	 viewBox="0 0 500 500" enable-background="new 0 0 500 500" xml:space="preserve">
<g>
	<path style="fill:#FFFFFF;" d="M176.825,138.262c-9.21,0-17.817,3.537-24.237,9.956c-6.42,6.42-9.956,15.028-9.956,24.24
		c0,9.211,3.536,17.819,9.956,24.237c6.42,6.422,15.027,9.957,24.237,9.957c9.211,0,17.818-3.537,24.24-9.955
		c6.421-6.422,9.956-15.028,9.956-24.239s-3.536-17.819-9.956-24.24C194.645,141.799,186.037,138.262,176.825,138.262z
		 M184.083,179.711c-1.992,1.992-4.568,3.09-7.257,3.09c-2.688,0-5.265-1.098-7.255-3.09c-1.994-1.992-3.09-4.568-3.09-7.255
		s1.098-5.265,3.09-7.257c1.993-1.993,4.57-3.09,7.257-3.09c2.687,0,5.263,1.098,7.257,3.09
		C188.152,169.269,188.152,175.643,184.083,179.711z"/>
	<path style="fill:#FFFFFF;" d="M427.448,406.262l-3.149-59.846c-0.185-2.946-1.441-5.695-3.537-7.771l-129.23-129.229l-0.518-0.518l0.149-0.716
		c7.43-35.414-2.991-71.413-27.879-96.301l-0.347-0.347c-19.846-19.659-46.224-30.482-74.283-30.482
		c-28.246,0-54.75,10.951-74.63,30.83c-19.88,19.88-30.83,46.382-30.83,74.63c0,28.246,10.95,54.749,30.83,74.63
		c19.412,19.412,45.579,30.102,73.683,30.102c7.528,0,15.105-0.781,22.52-2.321l0.717-0.149l0.517,0.517l44.287,44.289
		c2.264,2.228,5.247,3.443,8.419,3.443l0.155-0.001h24.425h1.353v1.354v24.407c0.01,6.637,5.396,12.032,12.01,12.032h24.432h1.354
		v1.354v24.408c-0.034,6.204,4.784,11.498,10.969,12.037l75.582,6.3c0.347,0.027,0.683,0.039,1.016,0.039
		c0.231,0,0.468-0.004,0.701-0.02C422.753,418.557,427.823,412.873,427.448,406.262z M339.85,350.85h-24.432h-1.353v-1.354v-24.41
		c-0.01-6.637-5.399-12.031-12.012-12.031h-32.303h-0.56l-0.396-0.396l-44.98-44.978c-2.265-2.254-5.27-3.491-8.466-3.491
		c-1.142,0-2.281,0.163-3.381,0.485c-7.553,2.235-15.382,3.368-23.28,3.368c-21.794,0-42.281-8.482-57.684-23.885
		c-31.786-31.788-31.786-83.509,0-115.296c15.453-15.453,35.925-23.961,57.647-23.961s42.195,8.509,57.647,23.961
		c21.204,21.206,29.103,52.192,20.615,80.867c-1.291,4.216-0.179,8.809,2.916,11.954l130.398,130.398l0.364,0.366l0.029,0.518
		l2.067,39.272l0.082,1.55l-1.547-0.13l-48.126-4.038l-1.241-0.104v-1.244v-25.392C351.847,356.244,346.461,350.85,339.85,350.85z"
		/>
</g>
</svg>
