<?xml version="1.0" encoding="utf-8"?>
<!-- Generator: Adobe Illustrator 16.0.0, SVG Export Plug-In . SVG Version: 6.00 Build 0)  -->
<!DOCTYPE svg PUBLIC "-//W3C//DTD SVG 1.1//EN" "http://www.w3.org/Graphics/SVG/1.1/DTD/svg11.dtd">
<svg version="1.1" id="Слой_1" xmlns="http://www.w3.org/2000/svg"  x="0px" y="0px"
	 width="1500px" height="1500px" viewBox="0 0 1500 1500" enable-background="new 0 0 1500 1500" xml:space="preserve">
<path style="fill:#FFFFFF;" d="M1087.861,476.199c-0.214-1.069-0.575-2.056-0.938-3.075c-0.183-0.51-0.278-1.036-0.462-1.528
	c-0.477-1.133-1.085-2.188-1.727-3.224c-0.196-0.329-0.329-0.69-0.542-1.02c-0.904-1.346-1.924-2.598-3.075-3.747L930.8,313.3
	c-1.135-1.151-2.4-2.171-3.749-3.075c-0.296-0.197-0.606-0.313-0.902-0.494c-1.069-0.658-2.171-1.283-3.34-1.776
	c-0.444-0.198-0.938-0.28-1.397-0.428c-1.036-0.361-2.089-0.756-3.207-0.986c-1.595-0.329-3.207-0.494-4.869-0.494H495.268
	c-13.63,0-24.667,11.035-24.667,24.667v756.249c0,13.615,11.037,24.667,24.667,24.667h568.42c13.617,0,24.667-11.052,24.667-24.667
	V481.066C1088.355,479.421,1088.191,477.794,1087.861,476.199z M938.021,390.293l66.123,66.123h-66.123V390.293z M1039.022,1062.328
	H519.935V355.415h368.753v125.669c0,13.63,11.048,24.667,24.666,24.667h125.685v556.577L1039.022,1062.328L1039.022,1062.328z
	 M810.312,895.928c-13.633,0-24.666,11.051-24.666,24.666s11.033,24.667,24.666,24.667h119.486
	c13.615,0,24.667-11.052,24.667-24.667s-11.052-24.666-24.667-24.666H810.312z M801.596,549.524l-46.488,71.748L625.887,820.76
	c-0.197,0.313-0.23,0.691-0.411,1.018c-1.201,2.039-2.089,4.227-2.665,6.53c-0.165,0.656-0.261,1.267-0.361,1.94
	c-0.395,2.384-0.477,4.833-0.131,7.302c0.031,0.212-0.033,0.411,0,0.625l8.649,84.919c0.756,7.498,4.917,14.225,11.281,18.286
	c4.012,2.549,8.617,3.864,13.27,3.864c2.714,0,5.443-0.443,8.074-1.364l79.641-27.578c3.7-1.003,6.94-3.141,9.852-5.771
	c2.482-2.006,4.537-4.456,6.083-7.236l127.512-196.839c0.131-0.199,0.196-0.395,0.312-0.594l46.127-71.221
	c3.569-5.492,4.786-12.168,3.421-18.565c-1.365-6.396-5.215-11.988-10.707-15.54l-90.081-58.345
	C824.306,534.824,809.013,538.063,801.596,549.524z M723.649,867.346c-20.932-0.541-39.565-12.709-49.218-30.783l108.32-167.222
	l48.727,31.555L723.649,867.346z M858.609,658.913l-48.678-31.524l19.653-30.357l48.676,31.524L858.609,658.913z"/>
</svg>
