<?xml version="1.0" encoding="utf-8"?>
<!-- Generator: Adobe Illustrator 16.0.0, SVG Export Plug-In . SVG Version: 6.00 Build 0)  -->
<!DOCTYPE svg PUBLIC "-//W3C//DTD SVG 1.1//EN" "http://www.w3.org/Graphics/SVG/1.1/DTD/svg11.dtd">
<svg version="1.1" id="Слой_1" xmlns="http://www.w3.org/2000/svg"  x="0px" y="0px"
	 width="1500px" height="1500px" viewBox="0 0 1500 1500" enable-background="new 0 0 1500 1500" xml:space="preserve">
<g>
	<g>
		<path style="fill:#FFFFFF;" d="M1240.171,1077.678H720.85c-22.02,0-39.252,17.32-39.252,39.424c0,22.105,17.232,39.469,39.252,39.469h519.887
			c21.975,0,39.206-17.363,39.206-39.469C1279.942,1094.17,1261.754,1075.676,1240.171,1077.678z M511.522,197.166H401.823
			c-52.349,0-94.947,42.819-94.947,95.447V402.88c0,52.608,42.599,95.425,94.947,95.425h109.699c52.371,0,94.97-42.816,94.97-95.425
			V292.613C606.492,239.093,564.785,197.166,511.522,197.166z M526.297,402.88c0,7.767-7.029,14.838-14.774,14.838H401.823
			c-7.723,0-14.774-7.071-14.774-14.838V292.613c0-7.787,7.052-14.858,14.774-14.858h109.699c7.745,0,14.774,7.071,14.774,14.858
			V402.88z M1240.736,692.555H720.85c-22.02,0-39.252,17.316-39.252,39.444c0,22.106,17.232,39.426,39.252,39.426h519.887
			c21.975,0,39.206-17.32,39.206-39.426C1279.942,709.872,1262.711,692.555,1240.736,692.555z M511.522,965.672H401.823
			c-52.349,0-94.947,42.816-94.947,95.471v110.264c0,52.609,42.599,95.428,94.947,95.428h109.699
			c52.371,0,94.97-42.818,94.97-95.428v-110.264C606.492,1008.488,563.894,965.672,511.522,965.672z M526.297,1171.406
			c0,7.748-7.029,14.84-14.774,14.84H401.823c-7.723,0-14.774-7.092-14.774-14.84v-110.264c0-7.789,7.052-14.881,14.774-14.881
			h109.699c7.745,0,14.774,7.092,14.774,14.881V1171.406z M511.522,582.289H401.823c-52.349,0-94.947,42.797-94.947,95.428v110.243
			c0,52.652,42.599,95.428,94.947,95.428h109.699c52.371,0,94.97-42.775,94.97-95.428V677.716
			C606.492,624.194,564.785,582.289,511.522,582.289z M526.297,787.959c0,7.789-7.029,14.883-14.774,14.883H401.823
			c-7.723,0-14.774-7.094-14.774-14.883V677.716c0-7.768,7.052-14.861,14.774-14.861h109.699c7.745,0,14.774,7.094,14.774,14.861
			V787.959z M724.504,379.686c1.152,0,2.326-0.044,3.546-0.131h519.431c20.887,0,39.248-18.427,39.248-39.444
			c0-22.129-17.273-39.445-39.248-39.445H727.594c-23.345,0-40.927,16.947-40.927,39.445
			C686.667,363.042,702.571,379.686,724.504,379.686z"/>
	</g>
</g>
</svg>
