<?xml version="1.0" encoding="utf-8"?>
<!-- Generator: Adobe Illustrator 16.0.0, SVG Export Plug-In . SVG Version: 6.00 Build 0)  -->
<!DOCTYPE svg PUBLIC "-//W3C//DTD SVG 1.1//EN" "http://www.w3.org/Graphics/SVG/1.1/DTD/svg11.dtd">
<svg version="1.1" id="Layer_1" xmlns="http://www.w3.org/2000/svg"  x="0px" y="0px"
	 width="500px" height="500px" viewBox="0 0 500 500" enable-background="new 0 0 500 500" xml:space="preserve">
<g>
	<path style="fill:#FFFFFF;" d="M341.861,115.149H106.841c-7.147,0-11.415,4.268-11.415,11.415v302.169c0,7.147,4.268,11.415,11.415,11.415h235.021
		c7.148,0,11.416-4.268,11.416-11.415V126.564C353.277,119.417,349.01,115.149,341.861,115.149z M330.446,143.352v268.595v5.372
		h-5.372H123.628h-5.372v-5.372V143.352v-5.372h5.372h201.446h5.372V143.352z"/>
	<path style="fill:#FFFFFF;" d="M409.011,48H140.416C133.268,48,129,52.268,129,59.415c0,7.148,4.268,11.416,11.416,11.416h251.808h5.372v5.372v302.169
		c0,7.147,4.268,11.415,11.415,11.415s11.415-4.268,11.415-11.415V59.415C420.426,52.268,416.158,48,409.011,48z"/>
	<path style="fill:#FFFFFF;" d="M157.203,221.915h117.51c7.147,0,11.415-4.268,11.415-11.415s-4.268-11.415-11.415-11.415h-117.51
		c-7.147,0-11.416,4.268-11.416,11.415S150.055,221.915,157.203,221.915z"/>
	<path style="fill:#FFFFFF;" d="M157.203,289.064h117.51c7.147,0,11.415-4.268,11.415-11.416c0-7.147-4.268-11.415-11.415-11.415h-117.51
		c-7.147,0-11.416,4.268-11.416,11.415C145.787,284.797,150.055,289.064,157.203,289.064z"/>
	<path style="fill:#FFFFFF;" d="M157.203,356.213h83.936c7.147,0,11.415-4.268,11.415-11.415s-4.268-11.416-11.415-11.416h-83.936
		c-7.147,0-11.416,4.269-11.416,11.416S150.055,356.213,157.203,356.213z"/>
</g>
</svg>
