<?xml version="1.0" encoding="utf-8"?>
<!-- Generator: Adobe Illustrator 16.0.0, SVG Export Plug-In . SVG Version: 6.00 Build 0)  -->
<!DOCTYPE svg PUBLIC "-//W3C//DTD SVG 1.1//EN" "http://www.w3.org/Graphics/SVG/1.1/DTD/svg11.dtd">
<svg version="1.1" id="Layer_1" xmlns="http://www.w3.org/2000/svg"  x="0px" y="0px"
	 width="500px" height="500px" viewBox="0 0 500 500" enable-background="new 0 0 500 500" xml:space="preserve">
<title>Phone_1</title>
<g>
	<path style="fill:#FFFFFF;" d="M446.369,358.366l-61.363-61.404c-7.521-7.328-17.445-11.362-27.96-11.362l-0.552,0.002
		c-11.253,0-21.886,4.354-29.955,12.272l-25.813,25.813l-0.056-0.029c-26.484-13.654-50.672-31.146-71.857-51.957
		c-20.882-21.256-38.408-45.452-52.116-71.963l25.821-25.786c16.322-15.895,16.761-42.194,0.94-58.663L141.921,53.92
		c-7.508-7.367-17.436-11.424-27.973-11.424l-0.436,0.004h-0.178c-11.278,0-21.927,4.374-30.004,12.337L68.3,69.992
		c-0.771,0.772-1.456,1.645-2.042,2.603l-1.006,1.665c-6.259,8.184-11.345,17.203-15.122,26.818
		c-3.456,8.918-5.778,18.251-6.902,27.737c-8.49,70.413,22.968,134.056,108.582,219.669
		C252.964,449.639,339.015,457.5,362.955,457.5l0.962,0.005c2.471,0,4.966-0.11,7.467-0.334l0.189-0.021
		c9.532-1.161,18.895-3.527,27.817-7.03c9.854-3.829,19.073-9.071,27.402-15.579l3.456-2.698l15.239-14.864
		C461.813,401.113,462.223,374.836,446.369,358.366z M182.934,154.284l-33.425,33.256c-4.396,4.367-5.33,11.21-2.255,16.67
		l4.795,8.268c14.949,29.036,34.164,55.584,57.143,78.939c23.15,22.71,49.51,41.748,78.279,56.55l8.941,4.954l0.15,0.081
		c1.961,1.016,4.16,1.553,6.363,1.553c3.744,0,7.38-1.549,9.938-4.214l33.062-33.063c2.812-2.734,6.519-4.24,10.428-4.24
		l0.259,0.001l0.132-0.001c3.321,0,6.443,1.287,8.787,3.62l61.247,61.288c2.4,2.406,3.737,5.744,3.669,9.166
		c-0.063,3.869-1.608,7.5-4.352,10.217l-13.473,13.267l-2.811,2.212c-6.203,4.832-13.073,8.729-20.428,11.579
		c-6.693,2.623-13.706,4.403-20.839,5.29l-0.219,0.018c-0.668,0.056-2.442,0.203-5.291,0.203c-21.263,0-97.923-7.276-191.681-100.91
		C92.493,250.082,63.327,193.034,70.684,132.072c0.85-7.165,2.598-14.21,5.195-20.938c2.863-7.389,6.765-14.321,11.646-20.67
		l1.35-1.879l14.064-14.147c2.714-2.673,6.276-4.187,10.069-4.287l1.308-0.005c3.077,0.089,5.956,1.288,8.114,3.369l61.163,61.119
		C188.737,140.179,188.455,148.98,182.934,154.284z"/>
	<path style="fill:#FFFFFF;" d="M275.304,99.443c69.001,0.087,125.208,56.291,125.295,125.285c0,7.622,6.201,13.823,13.823,13.823
		s13.823-6.204,13.823-13.832c-0.048-40.828-15.974-79.211-44.842-108.081c-28.869-28.87-67.257-44.794-108.091-44.842
		c-7.621,0-13.822,6.201-13.822,13.823S267.688,99.443,275.304,99.443z"/>
	<path style="fill:#FFFFFF;" d="M262.661,158.459c43.476,0.042,78.88,35.445,78.922,78.916c0,7.622,6.201,13.823,13.823,13.823s13.822-6.204,13.822-13.832
		c-0.073-58.679-47.875-106.479-106.562-106.553c-7.623,0-13.824,6.201-13.824,13.823
		C248.843,152.258,255.043,158.459,262.661,158.459z"/>
</g>
</svg>
