<?xml version="1.0" encoding="utf-8"?>
<!-- Generator: Adobe Illustrator 16.0.0, SVG Export Plug-In . SVG Version: 6.00 Build 0)  -->
<!DOCTYPE svg PUBLIC "-//W3C//DTD SVG 1.1//EN" "http://www.w3.org/Graphics/SVG/1.1/DTD/svg11.dtd">
<svg version="1.1" id="Слой_1" xmlns="http://www.w3.org/2000/svg"  x="0px" y="0px"
	 width="1500px" height="1500px" viewBox="0 0 1500 1500" enable-background="new 0 0 1500 1500" xml:space="preserve">
<path style="fill:#FFFFFF;" d="M1349.859,602.274h-301.874h-22.193l4.488-21.692l69.317-333.417l0.043-0.208l0.04-0.207
	c2.993-12.965-1.121-26.64-11.054-36.571l-57.764-57.722c-7.648-7.648-17.745-12.054-27.678-12.054H772.084
	c-7.813,0-18.785,1.914-26.868,11.18l-0.394,0.416l-0.415,0.458l-57.786,57.722c-5.133,5.111-9.061,12.302-11.075,20.282
	L560.181,747.686c-1.456,10.181-2.992,20.737-6.025,32.913l-2.327,9.226l-8.956,3.324c-19.635,7.23-41.621,42.266-41.621,78.335
	c0,53.734,43.74,97.412,97.495,97.412c53.753,0,97.493-43.678,97.493-97.412c0-34.864-19.697-67.529-51.427-85.315l-9.247-5.154
	v-10.555c0-2.618,0.521-6.109,2.515-9.641L750.12,262.75l1.165-5.112l3.698-3.699l28.883-28.882l5.276-5.278h7.48h183.455h7.896
	l5.319,5.777l18.783,20.195l6.4,6.858l-1.995,9.183L947.165,587.98l-3.032,14.294h-14.588h-99.696
	c-21.902,0-39.709,17.829-39.709,39.688c0,21.902,17.807,39.729,39.709,39.729h446.329h23.146l-5.651,22.401l-144.411,577.36
	l-3.451,13.671h-14.087H412.424h-14.111l-3.405-13.671l-144.455-577.36l-5.61-22.401h23.126h157.441
	c21.9,0,39.729-17.826,39.729-39.729c0-21.859-17.829-39.688-39.729-39.688H194.31c-12.841,0-24.561,5.446-32.125,14.879
	c-7.605,9.517-9.87,20.778-6.689,33.452l173.315,692.808l0.062,0.248l0.062,0.208c4.009,18.036,19.926,30.629,38.712,30.629h808.876
	c17.411,0,33.703-13.175,38.854-31.336l173.297-692.557c3.531-14.211-1.831-26.181-7.066-33.867
	C1373.63,607.014,1363.239,602.274,1349.859,602.274z"/>
</svg>
