<?xml version="1.0" encoding="utf-8"?>
<!-- Generator: Adobe Illustrator 16.0.0, SVG Export Plug-In . SVG Version: 6.00 Build 0)  -->
<!DOCTYPE svg PUBLIC "-//W3C//DTD SVG 1.1//EN" "http://www.w3.org/Graphics/SVG/1.1/DTD/svg11.dtd">
<svg version="1.1" id="Layer_1" xmlns="http://www.w3.org/2000/svg"  x="0px" y="0px"
	 width="500px" height="500px" viewBox="0 0 500 500" enable-background="new 0 0 500 500" xml:space="preserve">
<title>store</title>
<g>
	<path style="fill:#FFFFFF;" d="M461.111,193.111c-7.781,0-14.111,6.324-14.111,14.092c-0.063,10.174-4.532,19.792-12.252,26.38
		c-7.425,6.179-16.86,9.582-26.567,9.582c-2.067,0-4.152-0.157-6.206-0.469c-14.703-2.07-27.012-12.622-31.371-26.927l-2.104-5.897
		c-0.897-7.063-6.899-12.375-14.007-12.375c-0.482,0-0.975,0.025-1.456,0.073c-7.582,0.758-13.267,7.521-12.721,15.107
		c-1.445,9.169-6.579,17.555-14.107,23.029c-6.871,5.125-15.422,7.947-24.079,7.948c-2.123,0-4.255-0.171-6.348-0.51
		c-15.174-2.274-27.646-13.29-31.779-28.064l-2.646-5.855c-2.435-4.922-7.354-7.979-12.841-7.979c-0.602,0-1.198,0.039-1.848,0.121
		c-6.127,0.922-10.886,5.654-11.83,11.711c-3.906,17.469-19.713,30.147-37.585,30.147c-2.101,0-4.241-0.177-6.384-0.53
		c-14.594-2.069-26.705-12.546-30.836-26.62l-1.958-9.119c-1.089-6.636-6.757-11.453-13.476-11.453
		c-0.442,0-0.886,0.021-1.271,0.059c-6.983,0.54-12.444,6.021-12.987,13.061c-0.518,10.167-5.45,19.57-13.544,25.809
		c-8.736,6.984-20.286,10.063-31.49,8.261c-14.68-2.049-26.883-12.548-31.084-26.737c-2.038-7.172-1.604-14.921,1.245-21.879
		L93.914,80.292c3.673-9.618,13.057-16.08,23.349-16.08c0.22,0,0.441,0.003,0.737,0.01h265.378l0.47-0.004
		c10.291,0,19.668,6.442,23.325,16.008l29.592,83.43c2.142,5.432,7.294,8.942,13.132,8.942c1.771,0,3.513-0.332,5.172-0.985
		c6.956-2.741,10.565-10.458,8.22-17.574L435.034,70.62c-7.718-20.727-27.757-34.653-49.866-34.653
		c-0.648,0-1.297,0.012-1.835,0.033H116.625C94.738,36.302,74.951,50.329,67.38,70.928L28.984,184.573
		c-4.874,12.452-5.535,26.401-1.857,39.292c7.431,24.672,28.713,42.943,54.215,46.547c3.339,0.49,6.743,0.738,10.116,0.738
		c15.547,0,30.845-5.297,43.08-14.918c3.65-2.916,6.983-6.227,9.922-9.854c10.572,12.89,25.96,21.623,42.41,24.029
		c3.485,0.544,7.037,0.819,10.555,0.819c20.125,0,39.675-9.201,52.553-24.674c10.573,12.916,25.984,21.667,42.513,24.085
		l0.187,0.021c3.413,0.24,7.008,0.238,10.272,0.008l0.454,0.001c14.538,0,28.96-4.789,40.604-13.481
		c4.381-3.254,8.337-7.039,11.772-11.26c10.517,12.842,25.832,21.577,42.263,24.045l0.241,0.023
		c1.396,0.072,2.836,0.104,4.268,0.094v132.466c0,6.544-1.873,10.333-11.442,10.333H108.889c-10.602,0-11.444-4.479-11.444-10.333
		v-96.89c0-7.78-6.33-14.109-14.111-14.109s-14.111,6.329-14.111,14.109l0.001,97.668c-1.11,20.216,14.432,37.593,34.646,38.734
		c1.714,0.101,3.515,0.069,5.104-0.068l281.732-0.004c1.123,0.102,2.263,0.154,3.388,0.154h0.001
		c19.063,0,34.787-14.33,36.575-33.332c0.172-1.814,0.207-3.66,0.107-5.433V267.645c8.192-2.729,15.688-6.959,22.28-12.586
		c14.014-11.969,22.092-29.401,22.163-47.836C475.223,199.441,468.893,193.111,461.111,193.111z"/>
	<path style="fill:#FFFFFF;" d="M320.444,353.111c7.779,0,14.109-6.33,14.109-14.111s-6.33-14.111-14.109-14.111H179.556
		c-7.781,0-14.111,6.33-14.111,14.111s6.331,14.111,14.111,14.111H320.444z"/>
</g>
</svg>
