<?xml version="1.0" encoding="utf-8"?>
<!-- Generator: Adobe Illustrator 18.1.1, SVG Export Plug-In . SVG Version: 6.00 Build 0)  -->
<svg version="1.1" id="Layer_1" xmlns="http://www.w3.org/2000/svg" xmlns:xlink="http://www.w3.org/1999/xlink" x="0px" y="0px"
	 viewBox="0 0 841.9 595.3" enable-background="new 0 0 841.9 595.3" xml:space="preserve">
<g>
	<g>
		<path fill="#FFFFFF" d="M621.6,343.9c0,12.5-10.2,22.7-22.7,22.7H243.7c-12.5,0-22.7-10.2-22.7-22.7v-91.7
			c0-12.5,10.2-22.7,22.7-22.7H599c12.5,0,22.7,10.2,22.7,22.7V343.9z"/>
	</g>
	<g>
		<path fill="#D44D60" d="M588.7,285.1l-0.5,1.4c-0.5,1.4-0.9,2.2-1.4,3.3c-0.3,0.7-0.7,1.5-1.2,2.6L575,318.7
			c-1.9,4.7-5.6,7.4-10.2,7.4c-1.6,0-3.5-0.5-4.5-0.9l-1-0.4l0.4-1c1.5-3.2,2.4-4.2,5.5-4.4c1.2-0.1,2.4-1.5,3.3-3.6l0.5-1.1
			l-9.6-22.3c-0.5-1.2-0.9-2.1-1.3-3.1c-0.4-0.9-0.7-1.7-1.2-2.8l-0.6-1.4h4.8c2.7,0,4,0.8,5,3.5c0,0,5.3,13.1,5.7,14.1
			c0.4,1,0.9,3.3,0.9,3.3l0.2,0c0,0,0.3-2.1,0.8-3.3c0.4-1.2,5.1-14.1,5.1-14.1c1-2.6,2.3-3.5,5.1-3.5H588.7z"/>
		<path fill="#D44D60" d="M529.4,284.7c-3.2,0-7.2,2.8-8.1,6.3c0,0,0-1.7,0-2.1c0-1.9-1.1-3.8-4.7-3.8H514v30.7h7.5V303
			c0-1.9,0.2-3.5,0.6-4.9c1.1-3.7,3.9-6,7.1-6c0.8,0,1.4,0.1,1.4,0.1l1.2,0.3V285l-0.9-0.1C531,284.9,530.2,284.7,529.4,284.7z"/>
		<path fill="#D44D60" d="M551.1,284.7c-3.2,0-7.2,2.8-8.1,6.3c0,0,0-1.7,0-2.1c0-1.9-1.1-3.8-4.7-3.8h-2.7v30.7h7.5V303
			c0-1.9,0.2-3.5,0.6-4.9c1.1-3.7,3.9-6,7.1-6c0.8,0,1.4,0.1,1.4,0.1l1.2,0.3V285l-0.8-0.1C552.7,284.9,552,284.7,551.1,284.7z"/>
		<path fill="#D44D60" d="M393.3,285.4c-9.4,0-16.4,6.9-16.4,16c0,9.2,7.1,16.1,16.4,16.1c9.2,0,16.5-7.1,16.5-16.1
			C409.8,292.3,402.7,285.4,393.3,285.4z M393.3,310.7c-5,0-8.8-4-8.8-9.3c0-5.2,3.8-9.2,8.8-9.2c5.1,0,8.9,4,8.9,9.2
			C402.1,306.7,398.3,310.7,393.3,310.7z"/>
		<path fill="#D44D60" d="M359.3,285.4c-4.2,0-7.2,1.7-8.9,3.2h-0.2c0,0,0.2-1.7,0.2-3.4c0-1.7,0-5.8,0-5.8c0-3.1-1.5-4.6-4.6-4.6
			h-2.9v26.9c0.4,9.8,6.5,15.8,15.9,15.8c8.7,0,15.3-6.9,15.3-16C374.1,292.3,367.7,285.4,359.3,285.4z M358,310.8
			c-4.8,0-7.9-4.7-7.9-9.2c0-6.9,4.4-9.3,8-9.3c4.1,0,8.4,3.5,8.4,9.3C366.5,307.3,362.2,310.8,358,310.8z"/>
		<path fill="#D44D60" d="M460.7,285.4c-4.2,0-7.2,1.7-8.9,3.2h-0.2c0,0,0.2-1.7,0.2-3.4c0-1.7,0-5.8,0-5.8c0-3.1-1.5-4.6-4.6-4.6
			h-2.9v26.9c0.4,9.8,6.5,15.8,15.9,15.8c8.7,0,15.3-6.9,15.3-16C475.6,292.3,469.2,285.4,460.7,285.4z M459.5,310.8
			c-4.8,0-7.9-4.7-7.9-9.2c0-6.9,4.4-9.3,8-9.3c4.1,0,8.4,3.5,8.4,9.3C468,307.3,463.7,310.8,459.5,310.8z"/>
		<path fill="#D44D60" d="M436.2,310.1l-6.1-9.7l5.2-7.8c0.9-1.4,1.7-2.4,2.5-3.5c0.6-0.8,1.1-1.6,1.8-2.5l1.1-1.6H435
			c-3.2,0-4.4,0.7-6.1,3.5c0,0-2.3,3.8-2.6,4.3c-0.3,0.5-1.1,2.3-1.1,2.3H425c0,0-0.7-1.6-1.1-2.3c-0.4-0.7-2.6-4.3-2.6-4.3
			c-1.8-2.8-3-3.5-6.1-3.5h-5.6l1.1,1.6c1.4,1.9,2.1,3.1,3.3,4.8l6.1,9l-5.1,8.5c-0.9,1.4-1.7,2.4-2.5,3.5c-0.6,0.8-1.1,1.6-1.8,2.5
			l-1.1,1.6h5.7c3.2,0,4.4-0.7,6.1-3.5c0,0,2.3-3.8,2.6-4.3c0.3-0.5,1.1-2.3,1.1-2.3h0.2c0,0,0.7,1.6,1.1,2.3
			c0.4,0.7,2.6,4.3,2.6,4.3c1.8,2.8,3,3.5,6.1,3.5h5.6l-1.1-1.6C438.1,312.9,437.3,311.8,436.2,310.1z"/>
		<path fill="#D44D60" d="M504.2,308.1c-0.9,0-1.6,0.4-2.4,0.7l-0.1,0c-1.6,0.7-3.5,1.6-5.8,1.6c-3.9,0-9-2.4-9.4-7.7
			c0,0,21.4,0,21.6,0c0.1-1,0.2-2.5,0.2-3.3c0-8.6-5.7-14.4-14.2-14.4c-9.1,0-15.4,6.6-15.4,16c0,9.3,7.5,16,16.9,16
			c7.6,0,11.9-4.7,12.1-4.8l0.5-0.5l-0.3-0.6C507.2,309.7,506.2,308.1,504.2,308.1z M494.6,290.9c3.2,0,6.6,2,6.6,6.1h-14.6
			C487,293.9,490.3,290.9,494.6,290.9z"/>
		<path fill="#D44D60" d="M284.4,320.2c3.3-3.3,8.6-3.3,11.8,0c3.3,3.3,3.3,8.6,0,11.8c-3.3,3.3-8.6,3.3-11.8,0
			C281.2,328.8,281.2,323.5,284.4,320.2"/>
		<path fill="#D44D60" d="M298.5,306.1c-3.3,3.3-3.3,8.6,0,11.8c3.3,3.3,8.6,3.3,11.8,0c3.3-3.3,3.3-8.6,0-11.8
			C307.1,302.9,301.8,302.9,298.5,306.1"/>
		<path fill="#D44D60" d="M312.6,292.1c-3.3,3.3-3.3,8.6,0,11.8c3.3,3.3,8.6,3.3,11.8,0c3.3-3.3,3.3-8.6,0-11.8
			C321.1,288.8,315.8,288.8,312.6,292.1"/>
		<path fill="#D44D60" d="M270.4,306.1c-3.3,3.3-3.3,8.6,0,11.8c3.3,3.3,8.6,3.3,11.8,0c3.3-3.3,3.3-8.6,0-11.8
			C279,302.9,273.7,302.9,270.4,306.1"/>
		<path fill="#D44D60" d="M256.3,292.1c-3.3,3.3-3.3,8.6,0,11.8c3.3,3.3,8.6,3.3,11.8,0c3.3-3.3,3.3-8.6,0-11.8
			C264.9,288.8,259.6,288.8,256.3,292.1"/>
		<path fill="#D44D60" d="M284.4,292.1c-3.3,3.3-3.3,8.6,0,11.8c3.3,3.3,8.6,3.3,11.8,0c3.3-3.3,3.3-8.6,0-11.8
			C293,288.8,287.7,288.8,284.4,292.1"/>
		<path fill="#D44D60" d="M270.4,278c-3.3,3.3-3.3,8.6,0,11.8c3.3,3.3,8.6,3.3,11.8,0c3.3-3.3,3.3-8.6,0-11.8
			C279,274.7,273.7,274.7,270.4,278"/>
		<path fill="#D44D60" d="M298.5,278c-3.3,3.3-3.3,8.6,0,11.8c3.3,3.3,8.6,3.3,11.8,0c3.3-3.3,3.3-8.6,0-11.8
			C307.1,274.7,301.8,274.7,298.5,278"/>
		<path fill-rule="evenodd" clip-rule="evenodd" fill="#ABCB56" d="M284.4,264c3.3-3.3,8.6-3.3,11.8,0c3.3,3.3,3.3,8.6,0,11.8
			c-3.3,3.3-8.6,3.3-11.8,0C281.2,272.5,281.2,267.2,284.4,264"/>
		<g>
			<path fill="#D44D60" d="M350.8,329.3v7.5h-1.3v-6.3h-3.4v6.3h-1.3v-7.5H350.8z"/>
			<path fill="#D44D60" d="M354.6,329.3v5l5.1-5.5v8.1h-1.3v-5l-5.1,5.5v-8H354.6z"/>
			<path fill="#D44D60" d="M368.1,331.4c-0.7-0.9-1.7-1.1-2.4-1.1c-1.4,0-2.7,1-2.7,2.8c0,1.8,1.3,2.8,2.6,2.8
				c0.8,0,1.7-0.3,2.4-1.2v1.6c-0.8,0.6-1.7,0.8-2.4,0.8c-2.3,0-4-1.7-4-3.9c0-2.3,1.7-4,4-4c1.2,0,2,0.5,2.3,0.7V331.4z"/>
			<path fill="#D44D60" d="M370.1,329.3h1.3v2.9h1.3c0.7,0,1.6,0.1,2.3,0.7c0.3,0.3,0.6,0.8,0.6,1.6c0,0.8-0.3,1.4-0.7,1.7
				c-0.7,0.6-1.5,0.6-2.2,0.6h-2.6V329.3z M372.6,335.7c0.4,0,0.9,0,1.2-0.2c0.2-0.1,0.5-0.4,0.5-1c0-0.3-0.1-0.7-0.5-0.9
				c-0.3-0.2-0.7-0.2-1.2-0.2h-1.2v2.3H372.6z"/>
			<path fill="#D44D60" d="M378.3,328.7l3.1,6.1l3-6.1l1.8,8.1h-1.3l-1-4.6l-2.5,5.2l-2.6-5.2l-1,4.6h-1.3L378.3,328.7z"/>
			<path fill="#D44D60" d="M393.6,329.3h1.3v7.5h-1.3v-1c-0.4,0.6-1.2,1.3-2.6,1.3c-1.9,0-3.7-1.3-3.7-4c0-2.6,1.7-3.9,3.7-3.9
				c1.4,0,2.2,0.8,2.6,1.2V329.3z M388.7,333.1c0,1.6,0.9,2.8,2.5,2.8c1.6,0,2.5-1.3,2.5-2.8c0-1.9-1.3-2.8-2.5-2.8
				C389.9,330.3,388.7,331.2,388.7,333.1z"/>
			<path fill="#D44D60" d="M402.9,329.3v5l5.1-5.5v8.1h-1.3v-5l-5.1,5.5v-8H402.9z"/>
			<path fill="#D44D60" d="M420.7,329.3v7.5h-1.3v-6.3H416v6.3h-1.3v-7.5H420.7z"/>
			<path fill="#D44D60" d="M422.7,333.1c0-2.3,1.7-4,4-4c2.3,0,4,1.7,4,4c0,2.3-1.7,3.9-4,3.9C424.4,337,422.7,335.4,422.7,333.1z
				 M424,333.1c0,1.8,1.3,2.8,2.6,2.8c1.4,0,2.6-1,2.6-2.8c0-1.8-1.3-2.8-2.6-2.8C425.3,330.3,424,331.3,424,333.1z"/>
			<path fill="#D44D60" d="M438.5,331.4c-0.7-0.9-1.7-1.1-2.3-1.1c-1.4,0-2.7,1-2.7,2.8c0,1.8,1.3,2.8,2.6,2.8
				c0.8,0,1.7-0.3,2.4-1.2v1.6c-0.8,0.6-1.7,0.8-2.4,0.8c-2.3,0-4-1.7-4-3.9c0-2.3,1.7-4,4-4c1.2,0,2,0.5,2.3,0.7V331.4z"/>
			<path fill="#D44D60" d="M440.5,329.3h1.3v2.9h1.3c0.7,0,1.6,0.1,2.3,0.7c0.3,0.3,0.6,0.8,0.6,1.6c0,0.8-0.3,1.4-0.7,1.7
				c-0.7,0.6-1.5,0.6-2.2,0.6h-2.6V329.3z M443.1,335.7c0.4,0,0.9,0,1.2-0.2c0.2-0.1,0.5-0.4,0.5-1c0-0.3-0.1-0.7-0.5-0.9
				c-0.3-0.2-0.7-0.2-1.2-0.2h-1.2v2.3H443.1z M447,329.3h1.3v7.5H447V329.3z"/>
			<path fill="#D44D60" d="M456.4,336.8h-1.3v-6.3h-2.7v3.4c0,0.6,0,1.5-0.6,2.2c-0.2,0.3-0.8,0.8-1.8,0.8c-0.1,0-0.3,0-0.4,0v-1.2
				c0.1,0,0.2,0,0.3,0c0.5,0,0.8-0.3,0.9-0.5c0.2-0.4,0.3-0.8,0.3-1.3v-4.6h5.3V336.8z"/>
			<path fill="#D44D60" d="M460.2,329.3v3.1l3-3.1h1.6l-3.3,3.3l3.7,4.2h-1.7l-2.9-3.3l-0.4,0.4v2.9h-1.3v-7.5H460.2z"/>
			<path fill="#D44D60" d="M467.8,329.3v5l5.1-5.5v8.1h-1.3v-5l-5.1,5.5v-8H467.8z"/>
		</g>
	</g>
</g>
</svg>
