<?xml version="1.0" encoding="utf-8"?>
<!-- Generator: Adobe Illustrator 16.0.0, SVG Export Plug-In . SVG Version: 6.00 Build 0)  -->
<!DOCTYPE svg PUBLIC "-//W3C//DTD SVG 1.1//EN" "http://www.w3.org/Graphics/SVG/1.1/DTD/svg11.dtd">
<svg version="1.1" id="Isolation_Mode" xmlns="http://www.w3.org/2000/svg" xmlns:xlink="http://www.w3.org/1999/xlink" x="0px"
	 y="0px" width="500px" height="238px" viewBox="0 0 500 238" enable-background="new 0 0 500 238" xml:space="preserve">
<path fill="#656262" d="M457.339,167.727h0.224l15.284-26.367h13.802l-23.583,37.646v12.639h-11.854v-12.639l-23.493-37.646h13.795
	L457.339,167.727L457.339,167.727z M408.563,169.604c5.337,0,9.227-2.788,9.227-8.419c0-5.584-3.811-8.779-9.227-8.779h-17.09
	v17.198H408.563L408.563,169.604z M417.251,142.771c7.941,2.968,12.569,9.984,12.569,18.415c0,7.063-3.181,13.13-9.407,16.613
	l7.741,13.845H415.01l-5.81-10.993h-17.727v10.993h-12.03v-50.284h29.566C411.976,141.359,414.724,141.828,417.251,142.771
	L417.251,142.771z M371.636,152.229h-33.699v8.438h30.3v10.867h-30.3v8.973h34.947v11.137h-46.978v-50.284h45.729V152.229
	L371.636,152.229z M319.542,152.229h-20.108v39.415h-12.03v-39.415h-20.112v-10.869h52.251V152.229L319.542,152.229z
	 M247.165,152.347c-3.054-0.853-6.53-1.281-10.431-1.281c-2.545,0-9.634,0.218-11.106,3.026c-0.296,0.563-0.443,1.162-0.443,1.809
	c0,1.276,0.512,2.073,1.526,2.502c1.143,0.485,2.647,0.851,4.531,1.083l14.837,1.696c9.096,1.121,17.45,4.703,17.45,15.231
	c0,13.613-15.434,16.484-26.082,16.484c-10.262,0-17.842-2.118-26.133-8.275l5.715-9.392c6.906,4.844,13.196,7.066,21.67,7.066
	c3.375,0,13.156-0.46,13.156-5.738c0-3.207-2.581-3.739-5.25-4.044l-16.626-1.879c-5.111-0.601-9.169-2.003-12.14-4.239
	c-3.026-2.277-4.506-5.804-4.506-10.486c0-12.245,13.526-15.712,23.401-15.712c9.836,0,17.517,1.761,25.514,7.72l-5.821,8.954
	C253.51,154.849,250.592,153.302,247.165,152.347L247.165,152.347z M209.835,191.644h-12.729l-3.219-7.506h-29.913l-3.218,7.506
	h-12.915l21.915-50.284h18.709L209.835,191.644L209.835,191.644z M189.157,173.538l-8.593-21.4h-3.268l-8.85,21.4H189.157
	L189.157,173.538z M152.626,141.359v10.869h-34.144v9.6h30.21v10.867h-30.21v18.948h-12.03v-50.284H152.626L152.626,141.359z"/>
<polygon fill="#E1986B" points="61.352,79.3 76.116,37.762 230.828,37.762 61.352,79.3 "/>
<polygon fill="#C7676A" points="100.765,93.965 61.352,79.3 145.133,63.443 172.04,73.454 100.765,93.965 "/>
<polygon fill="#E1986B" points="172.04,73.454 157.276,114.993 48.665,114.993 172.04,73.454 "/>
<polygon fill="#C7676A" points="98.083,119.982 13,215.335 48.665,114.993 98.083,119.982 "/>
</svg>
