<?xml version="1.0" standalone="no"?>
<!DOCTYPE svg PUBLIC "-//W3C//DTD SVG 20010904//EN"
 "http://www.w3.org/TR/2001/REC-SVG-20010904/DTD/svg10.dtd">
<svg version="1.0" xmlns="http://www.w3.org/2000/svg"
 width="293.000000pt" height="293.000000pt" viewBox="0 0 293.000000 293.000000"
 preserveAspectRatio="xMidYMid meet">
<metadata>
Created by potrace 1.11, written by Peter Selinger 2001-2013
</metadata>
<g transform="translate(0.000000,293.000000) scale(0.100000,-0.100000)"
fill="#000000" stroke="none">
<path d="M624 2813 c-4 -16 -11 -34 -17 -40 -5 -7 -6 -13 -2 -13 4 0 2 -7 -5
-15 -7 -8 -9 -15 -5 -15 4 0 0 -11 -8 -24 -9 -13 -18 -34 -19 -47 -2 -13 -10
-34 -16 -47 -7 -12 -10 -27 -7 -32 3 -6 1 -10 -6 -10 -7 0 -10 -3 -7 -6 4 -3
0 -17 -7 -31 -8 -15 -12 -30 -9 -35 3 -4 0 -8 -6 -8 -7 0 -10 -6 -7 -14 3 -8
3 -16 -1 -18 -5 -2 -15 -25 -24 -53 -24 -73 -50 -147 -59 -170 -21 -49 -37
-105 -31 -105 4 0 3 -4 -3 -8 -12 -9 -37 -70 -38 -94 -1 -10 -6 -18 -11 -18
-5 0 -6 -3 -3 -7 4 -3 2 -11 -3 -18 -5 -6 -11 -21 -13 -33 -2 -12 -6 -25 -10
-28 -20 -20 13 -54 58 -59 6 -1 25 -9 43 -18 18 -10 37 -15 42 -12 6 3 10 1
10 -6 0 -7 3 -10 6 -7 3 4 29 -4 59 -17 29 -13 56 -21 59 -18 3 4 6 1 6 -6 0
-6 6 -11 13 -10 6 1 23 -2 37 -8 14 -6 42 -18 64 -27 21 -9 42 -13 47 -10 5 3
9 1 9 -4 0 -6 12 -13 28 -18 35 -10 32 -9 67 -23 17 -7 37 -14 45 -16 8 -2 16
-4 18 -5 1 -2 5 -3 10 -5 4 -1 21 -7 37 -14 17 -7 35 -14 40 -15 6 -1 20 -8
33 -14 12 -7 22 -10 22 -7 0 3 18 -4 40 -15 22 -11 40 -18 40 -14 0 4 7 1 15
-6 8 -6 19 -9 25 -5 5 3 10 1 10 -5 0 -6 4 -9 9 -6 5 4 11 2 13 -4 2 -6 21 -3
48 6 25 9 54 18 65 21 35 8 50 11 55 13 3 1 8 2 13 1 4 0 7 4 7 10 0 5 4 8 8
5 5 -3 47 7 93 21 46 15 90 26 97 24 6 -1 12 3 12 8 0 6 6 8 14 5 8 -3 17 0
21 5 3 6 10 9 15 6 5 -3 22 0 37 8 15 8 34 12 41 10 6 -3 12 0 12 6 0 6 7 8
15 5 8 -4 15 -2 15 2 0 5 14 10 31 11 17 1 37 7 44 13 6 5 15 7 18 3 4 -3 13
-1 20 5 8 7 17 9 20 5 4 -3 7 -2 7 4 0 6 9 9 20 6 12 -3 20 0 20 6 0 7 5 9 10
6 6 -3 16 -3 23 2 6 4 23 9 37 11 14 2 27 7 28 13 2 5 8 7 12 4 5 -3 24 1 42
8 18 8 39 12 46 10 6 -3 12 1 12 7 0 7 6 10 14 7 8 -3 17 -3 20 1 4 3 13 7 21
9 8 2 21 5 28 6 6 2 29 7 50 12 20 4 37 10 37 14 0 3 11 7 25 7 14 1 33 5 43
9 9 5 23 9 30 11 8 1 21 6 30 10 9 4 24 8 32 9 35 5 80 18 80 24 0 3 14 7 31
8 38 3 35 -21 -4 -25 -15 -2 -27 -7 -27 -12 0 -5 -7 -7 -15 -4 -8 4 -15 2 -15
-3 0 -5 -6 -10 -12 -11 -7 0 -20 -3 -28 -5 -8 -3 -30 -8 -47 -12 -18 -4 -33
-11 -33 -16 0 -5 -3 -8 -7 -8 -16 3 -74 -14 -79 -22 -3 -5 -10 -7 -15 -4 -5 4
-9 1 -9 -5 0 -6 -4 -9 -8 -6 -5 3 -66 -15 -138 -40 -153 -53 -141 -50 -181
-59 -18 -4 -33 -12 -33 -17 0 -5 -4 -6 -10 -3 -5 3 -16 3 -22 -2 -7 -4 -22 -9
-33 -10 -10 -2 -22 -9 -27 -15 -4 -7 -10 -9 -14 -6 -3 4 -19 1 -35 -8 -16 -8
-29 -12 -29 -8 0 4 -7 0 -17 -7 -9 -8 -18 -13 -20 -11 -6 5 -118 -32 -125 -43
-4 -5 -8 -7 -8 -3 0 4 -33 -4 -72 -18 -40 -14 -80 -27 -88 -29 -8 -2 -28 -9
-45 -16 -16 -6 -36 -13 -43 -15 -8 -1 -21 -6 -30 -10 -9 -4 -20 -8 -24 -9 -5
-2 -10 -4 -13 -5 -3 -1 -9 -4 -15 -5 -5 -1 -12 -4 -15 -5 -5 -3 -6 -3 -50 -15
-16 -4 -34 -10 -40 -14 -5 -3 -13 -6 -17 -7 -5 -1 -10 -3 -13 -4 -8 -4 -17 -7
-52 -15 -18 -4 -33 -11 -33 -16 0 -5 -7 -6 -15 -3 -8 4 -15 1 -15 -6 0 -6 -4
-9 -9 -6 -5 3 -26 -1 -47 -10 -21 -9 -45 -17 -53 -19 -9 -2 -29 -9 -46 -16
-16 -7 -34 -11 -39 -10 -4 1 -14 -4 -22 -10 -8 -6 -14 -8 -14 -4 0 4 -7 2 -15
-5 -8 -7 -15 -9 -15 -6 0 4 -10 1 -22 -6 -13 -7 -27 -11 -31 -10 -4 1 -20 -4
-36 -13 -16 -8 -31 -11 -35 -8 -3 4 -6 1 -6 -6 0 -7 -4 -10 -9 -6 -5 3 -12 1
-16 -4 -3 -6 -12 -8 -19 -5 -8 3 -17 0 -21 -5 -3 -6 -11 -9 -16 -6 -5 4 -9 1
-9 -6 0 -7 -3 -10 -6 -6 -5 5 -60 -11 -104 -30 -18 -8 -17 -7 -57 -17 -18 -4
-33 -11 -33 -16 0 -5 -9 -7 -20 -5 -11 2 -20 -1 -20 -6 0 -6 -4 -8 -8 -5 -5 3
-20 -1 -35 -9 -14 -7 -28 -11 -31 -7 -3 3 -6 1 -6 -4 0 -5 -12 -10 -26 -11
-15 0 -29 -5 -33 -10 -6 -8 -14 -11 -54 -18 -9 -2 -22 -7 -27 -10 -6 -4 -23
-9 -38 -11 -15 -3 -28 -9 -30 -15 -2 -5 -10 -9 -18 -9 -12 0 -14 -71 -14 -470
l0 -470 206 0 206 0 38 42 c22 23 36 46 33 51 -3 6 -1 7 5 3 6 -3 20 6 31 20
12 15 49 58 83 96 35 39 62 74 60 80 -1 5 2 7 7 4 5 -4 13 0 18 8 4 7 37 46
73 86 36 41 64 77 62 82 -1 4 2 7 6 6 4 -2 24 15 43 37 18 22 40 44 46 48 7 4
13 14 13 22 0 8 5 17 12 21 7 5 9 2 3 -7 -4 -8 4 -1 18 16 14 16 23 33 20 38
-2 4 1 6 9 5 7 -2 12 3 10 10 -1 6 2 11 6 10 12 -4 72 68 64 77 -4 5 -1 5 6 1
9 -5 15 -1 19 13 3 11 8 19 12 17 3 -2 14 6 23 18 16 22 16 23 -15 23 -18 0
-50 3 -72 7 -22 3 -69 8 -105 11 -36 2 -76 7 -90 9 -14 3 -59 8 -100 11 -76 5
-131 10 -205 19 -22 3 -70 8 -106 11 -111 11 -247 24 -299 30 -19 2 -41 4 -47
4 -7 1 -13 5 -13 9 0 5 555 8 1234 8 l1234 -1 23 65 c13 36 24 67 25 70 0 3 3
12 7 20 24 62 39 110 36 113 -2 2 2 11 9 20 8 9 11 21 7 27 -3 5 -2 10 4 10 9
0 27 56 23 73 -1 4 2 7 7 7 7 0 16 27 22 68 0 4 5 12 11 19 5 7 7 17 3 23 -3
5 -2 10 3 10 9 0 37 76 35 98 0 6 3 12 7 12 7 0 20 33 26 65 1 6 3 15 4 20 1
6 2 13 1 18 0 4 3 7 9 7 5 0 10 6 10 14 0 8 5 27 12 43 27 67 46 128 42 135
-3 5 0 8 5 8 6 0 11 10 11 22 0 12 -3 18 -7 15 -3 -4 -11 -3 -17 2 -6 4 -63
27 -126 51 -63 23 -148 55 -189 71 -40 16 -77 26 -82 23 -5 -3 -9 -1 -9 4 0 8
-71 36 -95 37 -5 0 -12 2 -15 5 -11 12 -93 39 -102 34 -5 -3 -25 -8 -45 -10
-20 -3 -55 -9 -80 -14 -24 -6 -60 -13 -81 -16 -20 -3 -55 -9 -77 -14 -22 -5
-56 -12 -75 -15 -19 -3 -69 -13 -110 -21 -41 -9 -86 -17 -100 -19 -21 -3 -138
-25 -265 -50 -16 -3 -39 -7 -50 -9 -18 -3 -154 -29 -215 -41 -14 -3 -50 -9
-80 -15 -30 -6 -66 -12 -80 -15 -13 -3 -42 -7 -64 -11 -22 -3 -45 -8 -50 -11
-5 -3 -23 -7 -40 -9 -17 -2 -42 -6 -56 -9 -14 -3 -38 -8 -55 -10 -16 -3 -52
-9 -80 -15 -145 -30 -165 -33 -165 -22 0 8 166 54 245 68 17 3 41 9 55 14 14
5 51 14 83 21 32 7 60 16 62 20 3 4 14 5 25 2 12 -3 20 0 20 6 0 7 4 10 9 7 4
-3 53 6 107 19 81 20 333 83 407 101 9 2 26 6 36 8 10 3 93 22 183 44 89 22
189 46 221 53 31 8 57 18 57 22 0 5 7 6 16 3 8 -3 30 1 49 8 18 8 35 12 38 10
2 -3 17 0 33 7 16 6 40 12 54 14 14 2 90 20 170 40 80 20 156 39 170 42 13 2
29 8 36 14 6 5 14 6 17 3 3 -4 14 -3 24 1 10 5 23 9 28 10 31 4 91 18 100 23
5 3 23 7 40 9 16 2 37 6 45 10 8 3 24 8 35 10 11 2 27 6 35 10 8 3 22 7 30 7
13 1 15 26 18 154 l3 152 -1151 0 -1150 0 -6 -27z"/>
</g>
</svg>
